<?xml version="1.0" encoding="utf-8"?>
<svg xmlns="http://www.w3.org/2000/svg"
	xmlns:xlink="http://www.w3.org/1999/xlink"
	width="16px" height="17px" viewBox="0 0 16 17">
<path fillRule="evenodd" d="M 14.66 3.39C 14.66 3.39 13.8 3.39 13.8 3.39 13.8 3.39 13.8 14.48 13.8 14.48 13.8 15.87 12.67 17 11.28 17 11.28 17 3.85 17 3.85 17 2.46 17 1.33 15.87 1.33 14.48 1.33 14.48 1.33 3.39 1.33 3.39 1.33 3.39 0.47 3.39 0.47 3.39 0.21 3.39-0 3.18-0 2.92-0 2.66 0.21 2.45 0.47 2.45 0.47 2.45 4.01 2.45 4.01 2.45 4.01 2.45 4.01 1.87 4.01 1.87 4.01 0.84 4.85-0 5.88-0 5.88-0 9.25-0 9.25-0 10.28-0 11.12 0.84 11.12 1.87 11.12 1.87 11.12 2.45 11.12 2.45 11.12 2.45 14.66 2.45 14.66 2.45 14.92 2.45 15.13 2.66 15.13 2.92 15.13 3.18 14.92 3.39 14.66 3.39ZM 10.17 1.87C 10.17 1.36 9.76 0.94 9.25 0.94 9.25 0.94 5.88 0.94 5.88 0.94 5.37 0.94 4.96 1.36 4.96 1.87 4.96 1.87 4.96 2.45 4.96 2.45 4.96 2.45 10.17 2.45 10.17 2.45 10.17 2.45 10.17 1.87 10.17 1.87ZM 12.86 3.39C 12.86 3.39 2.27 3.39 2.27 3.39 2.27 3.39 2.27 14.48 2.27 14.48 2.27 15.35 2.98 16.06 3.85 16.06 3.85 16.06 11.28 16.06 11.28 16.06 12.15 16.06 12.86 15.35 12.86 14.48 12.86 14.48 12.86 14.48 12.86 14.48 12.86 14.48 12.86 3.39 12.86 3.39ZM 10.65 13.84C 10.38 13.84 10.17 13.63 10.17 13.37 10.17 13.37 10.17 6.07 10.17 6.07 10.17 5.81 10.38 5.6 10.65 5.6 10.91 5.6 11.12 5.81 11.12 6.07 11.12 6.07 11.12 13.37 11.12 13.37 11.12 13.63 10.91 13.84 10.65 13.84ZM 7.56 14.36C 7.3 14.36 7.09 14.15 7.09 13.89 7.09 13.89 7.09 5.55 7.09 5.55 7.09 5.29 7.3 5.08 7.56 5.08 7.83 5.08 8.04 5.29 8.04 5.55 8.04 5.55 8.04 13.89 8.04 13.89 8.04 14.15 7.83 14.36 7.56 14.36ZM 4.48 13.84C 4.22 13.84 4.01 13.63 4.01 13.37 4.01 13.37 4.01 6.07 4.01 6.07 4.01 5.81 4.22 5.6 4.48 5.6 4.75 5.6 4.96 5.81 4.96 6.07 4.96 6.07 4.96 13.37 4.96 13.37 4.96 13.63 4.75 13.84 4.48 13.84Z" fill="rgb(255,255,255)"/></svg>