<?xml version="1.0" encoding="utf-8"?>
<svg xmlns="http://www.w3.org/2000/svg"
	xmlns:xlink="http://www.w3.org/1999/xlink"
	width="21px" height="16px" viewBox="0 0 21 16">
<clipPath id="clip0"><path fillRule="evenodd" d="M 8.4-0C 8.4-0 2.1-0 2.1-0 0.94-0-0 0.9-0 2-0 2-0 14-0 14-0 15.1 0.94 16 2.1 16 2.1 16 18.9 16 18.9 16 20.05 16 21 15.1 21 14 21 14 21 4 21 4 21 2.9 20.05 2 18.9 2 18.9 2 10.5 2 10.5 2 10.5 2 8.4-0 8.4-0Z"/></clipPath><path fillRule="evenodd" d="M 8.4-0C 8.4-0 2.1-0 2.1-0 0.94-0-0 0.9-0 2-0 2-0 14-0 14-0 15.1 0.94 16 2.1 16 2.1 16 18.9 16 18.9 16 20.05 16 21 15.1 21 14 21 14 21 4 21 4 21 2.9 20.05 2 18.9 2 18.9 2 10.5 2 10.5 2 10.5 2 8.4-0 8.4-0Z" fill="rgb(101,131,239)"/><g><path fillRule="evenodd" d="M 8.4-0C 8.4-0 2.1-0 2.1-0 0.94-0-0 0.9-0 2-0 2-0 14-0 14-0 15.1 0.94 16 2.1 16 2.1 16 18.9 16 18.9 16 20.05 16 21 15.1 21 14 21 14 21 4 21 4 21 2.9 20.05 2 18.9 2 18.9 2 10.5 2 10.5 2 10.5 2 8.4-0 8.4-0Z" fill="rgb(101,131,239)"/><rect x="0" y="-1" width="12" height="3" fill="rgb(65,103,225)" clip-path="url(#clip0)"/></g></svg>