<?xml version="1.0" encoding="utf-8"?>
<svg xmlns="http://www.w3.org/2000/svg"
	xmlns:xlink="http://www.w3.org/1999/xlink"
	width="14px" height="17px" viewBox="0 0 14 17">
<path fillRule="evenodd" d="M 13.93 2.35C 13.93 2.35 13.23 3.22 13.23 3.22 13.23 3.22 10.55 1.18 10.55 1.18 10.55 1.18 11.25 0.31 11.25 0.31 11.25 0.31 12.38-0.23 12.84 0.12 12.84 0.12 13.74 0.8 13.74 0.8 14.19 1.15 13.93 2.35 13.93 2.35ZM 2.74 16.28C 2.74 16.28-0 17-0 17-0 17 0.05 14.24 0.05 14.24 0.05 14.24 10.2 1.61 10.2 1.61 10.2 1.61 12.88 3.65 12.88 3.65 12.88 3.65 2.74 16.28 2.74 16.28Z" fill="rgb(101,131,239)"/></svg>